<?xml version="1.0" standalone="no"?><!DOCTYPE svg PUBLIC "-//W3C//DTD SVG 1.1//EN" "http://www.w3.org/Graphics/SVG/1.1/DTD/svg11.dtd"><svg t="1767372667076" class="icon" viewBox="0 0 1024 1024" version="1.1" xmlns="http://www.w3.org/2000/svg" p-id="6689" xmlns:xlink="http://www.w3.org/1999/xlink" width="200" height="200"><path d="M514.28 235.2c-3.18-3.88-66.04-76.46-88.15-86.67a135.912 135.912 0 0 0-56.31-12.54c-16.52 0.22-32.74 4.46-47.24 12.37L205.36 330.49l179.32 89.91 129.6-185.2zM872.91 643a2037.98 2037.98 0 0 1-202.9 23.2l-7.97-67.14-109.19 165.37 128.23 140.96 3.84-61.93 88.9-7.59a86.604 86.604 0 0 0 32.99-8.28 86.72 86.72 0 0 0 20.48-25.15l109.72-197.17a92.399 92.399 0 0 1-64.06 37.74l-0.04-0.01z m-581.83 11.67c-1.85 4.49-36.11 89.95-33.76 112.4 2.68 34.89 23.78 65.71 55.33 80.85l233.44-0.79-12.28-185.06-242.73-7.4z" fill="#67C23A" p-id="6690"></path><path d="M459.39 156.1c45.3 49.81 87.87 102.04 127.51 156.45l-62.93 38.21 221.19 12.21 74.55-172.27-63.8 26.11-53.25-69.73a84.179 84.179 0 0 0-25.16-23.41c-11.56-3.49-23.58-5.2-35.65-5.05l-253.17 2.53a107.05 107.05 0 0 1 70.73 35.07l-0.02-0.12z m293.82 487.66c5.38-0.37 108.28-8.1 129.81-19.66 32.06-14.96 53.23-46.42 54.99-81.75L824.88 344.24l-180.87 89.85 109.2 209.67zM247.01 721.64a1672.495 1672.495 0 0 1 78.56-177.9l69.9 29.49-107.5-177.68-201.98 29.17 58.7 36.36-36.86 76.59A71.563 71.563 0 0 0 99.4 569a93.843 93.843 0 0 0 14.39 30.12l138.25 195.02a83.383 83.383 0 0 1-5.06-72.42l0.03-0.08z" fill="#67C23A" p-id="6691"></path></svg>