<?xml version="1.0" standalone="no"?><!DOCTYPE svg PUBLIC "-//W3C//DTD SVG 1.1//EN" "http://www.w3.org/Graphics/SVG/1.1/DTD/svg11.dtd"><svg t="1777865706626" class="icon" viewBox="0 0 1024 1024" version="1.1" xmlns="http://www.w3.org/2000/svg" p-id="8765" xmlns:xlink="http://www.w3.org/1999/xlink" width="200" height="200"><path d="M512 511.96m-448.09 0a448.09 448.09 0 1 0 896.18 0 448.09 448.09 0 1 0-896.18 0Z" fill="#6200A0" p-id="8766"></path><path d="M736.14 174.33m-15.9 0a15.9 15.9 0 1 0 31.8 0 15.9 15.9 0 1 0-31.8 0Z" fill="#FFFFFF" p-id="8767"></path><path d="M416.08 148.55m-15.9 0a15.9 15.9 0 1 0 31.8 0 15.9 15.9 0 1 0-31.8 0Z" fill="#FFFFFF" p-id="8768"></path><path d="M795.84 639.78m-23.31 0a23.31 23.31 0 1 0 46.62 0 23.31 23.31 0 1 0-46.62 0Z" fill="#F533FF" p-id="8769"></path><path d="M219 311.48m-23.31 0a23.31 23.31 0 1 0 46.62 0 23.31 23.31 0 1 0-46.62 0Z" fill="#A0FFAE" p-id="8770"></path><path d="M208.61 651.2m-11.24 0a11.24 11.24 0 1 0 22.48 0 11.24 11.24 0 1 0-22.48 0Z" fill="#FFFFFF" p-id="8771"></path><path d="M179.28 286.98l-3.61-2.5-4.39-0.17 2.5-3.61 0.16-4.39 3.61 2.51 4.39 0.16-2.5 3.61zM129.94 511.8l-3.61-2.51-4.39-0.16 2.51-3.61 0.16-4.39 3.61 2.51 4.39 0.16-2.51 3.61zM871.88 491.44l-10.44-7.24-12.69-0.47 7.24-10.43 0.47-12.7 10.43 7.24 12.7 0.47-7.24 10.44zM205.08 463.63l-10.44-7.24-12.7-0.47 7.25-10.44 0.46-12.69 10.44 7.24 12.7 0.47-7.25 10.43zM642.8 838.99H355.08c-9.97 0-18.23-7.73-18.89-17.67L308.27 404.4c-0.48-7.22 5.24-13.33 12.47-13.33h369.77L661.7 821.32c-0.67 9.94-8.93 17.67-18.9 17.67z" fill="#FFFFFF" p-id="8772"></path><path d="M642.8 846.49H355.08c-13.86 0-25.45-10.84-26.38-24.67L300.79 404.9c-0.37-5.5 1.58-10.97 5.35-15 3.77-4.03 9.09-6.34 14.61-6.34h377.79l-29.35 438.25c-0.94 13.84-12.52 24.68-26.39 24.68zM320.74 398.57c-1.4 0-2.7 0.56-3.65 1.58a4.943 4.943 0 0 0-1.34 3.75l27.92 416.92c0.4 5.98 5.41 10.67 11.41 10.67H642.8c6 0 11.01-4.69 11.41-10.67l28.28-422.25H320.74z" fill="#333333" p-id="8773"></path><path d="M682.92 398.5h-46.45L611.6 773.14c-0.64 9.61-8.55 17.08-18.1 17.08H341.83l1.6 24.12c0.59 9.19 0.93 18.47 18.1 17.08H637.2c9.55 0 18.71 1.18 18.1-17.08l27.62-415.84z" fill="#F533FF" p-id="8774"></path><path d="M449.29 197.53L431.66 284l30.37 6.19 13.77-67.53c0.6-2.93 3.46-4.83 6.39-4.23l108.27 22.07c2.93 0.6 4.83 3.46 4.23 6.39l-13.77 67.53 30.37 6.19 17.63-86.47c1.74-8.52-3.76-16.84-12.29-18.58l-148.77-30.33c-8.52-1.72-16.84 3.78-18.57 12.3z" fill="#FFFFFF" p-id="8775"></path><path d="M617.15 329.47l-45.07-9.19 14.85-72.84-104.2-21.24-14.85 72.84-45.07-9.19 19.13-93.82c1.24-6.08 4.78-11.32 9.96-14.75 5.18-3.43 11.38-4.63 17.47-3.39l148.77 30.33c12.56 2.56 20.7 14.86 18.14 27.43l-19.13 93.82z m-27.38-20.89l15.68 3.2 16.13-79.12c0.91-4.46-1.98-8.82-6.44-9.73L466.37 192.6a8.224 8.224 0 0 0-6.2 1.2 8.186 8.186 0 0 0-3.53 5.23l-16.13 79.12 15.68 3.2 12.27-60.18c1.42-6.98 8.26-11.5 15.24-10.08l108.27 22.07c3.38 0.69 6.29 2.65 8.19 5.53 1.9 2.88 2.57 6.33 1.88 9.71l-12.27 60.18z" fill="#333333" p-id="8776"></path><path d="M693.78 404.11l-382.14-77.9c-12.45-2.54-20.48-14.69-17.94-27.13l9.39-46.05c2.54-12.45 14.69-20.48 27.13-17.94l382.14 77.9c12.45 2.54 20.48 14.69 17.94 27.13l-9.39 46.05c-2.53 12.45-14.68 20.48-27.13 17.94z" fill="#FFFFFF" p-id="8777"></path><path d="M698.38 412.08c-2.01 0-4.05-0.2-6.1-0.62l-382.14-77.9c-7.98-1.63-14.85-6.27-19.35-13.06-4.49-6.8-6.07-14.93-4.45-22.92l9.39-46.05c3.36-16.48 19.5-27.15 35.98-23.79l382.14 77.9c16.48 3.36 27.15 19.5 23.79 35.98l-9.39 46.05c-2.93 14.43-15.68 24.41-29.87 24.41zM325.62 242.12c-7.21 0-13.69 5.07-15.19 12.41l-9.39 46.05c-0.83 4.06-0.02 8.19 2.26 11.65 2.28 3.45 5.78 5.81 9.83 6.64l382.14 77.9c8.38 1.71 16.58-3.72 18.29-12.09l9.39-46.05c1.71-8.38-3.72-16.58-12.09-18.29l-382.14-77.9c-1.04-0.22-2.08-0.32-3.1-0.32z" fill="#333333" p-id="8778"></path><path d="M710.2 320.2l-7.14-1.45c0.27 1.77 0.25 3.62-0.13 5.47l-9.31 45.69c-1.73 8.49-10.01 13.97-18.5 12.24l-374.64-76.37c0.96 6.32 5.73 11.68 12.36 13.03l381.78 77.83c8.49 1.73 16.77-3.75 18.5-12.24l9.31-45.69c1.74-8.49-3.74-16.78-12.23-18.51z" fill="#A0FFAE" p-id="8779"></path><path d="M595.75 218.97l19.8 4.04s4.41 0.88 5.8 5.56c0 0 0.78 1.5 0.17 4.39l-3.5 17.17-7.04 34.53-15.68-3.2 6.88-33.74c-0.01 0 2.15-19.2-6.43-28.75z" fill="#F533FF" p-id="8780"></path><path d="M361.45 545.45c-4.22 0.38-7.95-2.72-8.33-6.94l-6.41-70.38c-0.38-4.22 2.72-7.95 6.94-8.33 4.22-0.38 7.95 2.72 8.33 6.94l6.41 70.38a7.674 7.674 0 0 1-6.94 8.33zM411.16 578.77c-4.22 0.38-7.95-2.72-8.33-6.94L391.4 446.35c-0.38-4.22 2.72-7.95 6.94-8.33 4.22-0.38 7.95 2.72 8.33 6.94l11.42 125.47a7.664 7.664 0 0 1-6.93 8.34z" fill="#333333" p-id="8781"></path></svg>